{"title":"The.A.Team.2010.TS.V2.MP4.AAC.FEEEL-FREE","uid":5631959,"size":1077517423,"categoryP":"video","categoryS":"movies","magnet":"?xt=urn:btih:196afaf9ef964d6372c7e9da8d25723205badfa9&amp;dn=The.A.Team.2010.TS.V2.MP4.AAC.FEEEL-FREE&amp;tr=udp%3A%2F%2Ftracker.openbittorrent.com%3A80&amp;tr=udp%3A%2F%2Fopen.demonii.com%3A1337&amp;tr=udp%3A%2F%2Ftracker.coppersurfer.tk%3A6969&amp;tr=udp%3A%2F%2Fexodus.desync.com%3A6969","seeders":0,"leechers":0,"uploader":"DibyaTPB","files":11,"time":1276719465,"description":"Genre:Action | Adventure | Thriller\nLanguage:English\nIMDb:http://www.imdb.com/title/tt0429493/\nSubtitles: ROMANA\nEncoder: Tony2\n...............................................\nGeneral\nComplete name : The.A.Team.2010.TS.V2.MP4.AAC.FEEEL-FREE.mp4\nFormat : MPEG-4\nFormat profile : Base Media\nCodec ID : isom\nFile size : 1.00 GiB\nDuration : 1h 47mn\nOverall bit rate : 1 332 Kbps\n................................................\nVideo\nID : 1\nFormat : MPEG-4 Visual\nFormat profile : Simple@L1\nFormat settings, BVOP : No\nFormat settings, QPel : No\nFormat settings, GMC : No warppoints\nFormat settings, Matrix : Default (H.263)\nCodec ID : 20\nDuration : 1h 47mn\nBit rate mode : Variable\nBit rate : 1 200 Kbps\nWidth : 704 pixels\nHeight : 304 pixels\nDisplay aspect ratio : 2.35:1\nFrame rate mode : Constant\nFrame rate : 25.000 fps\nResolution : 24 bits\nColorimetry : 4:2:0\nScan type : Progressive\nBits/(Pixel*Frame) : 0.224\nStream size : 924 MiB (90%)\nWriting library : Lavc51.40.4\n..............................................\nAudio\nID : 2\nFormat : AAC\nFormat/Info : Advanced Audio Codec\nFormat version : Version 4\nFormat profile : LC\nFormat settings, SBR : No\nCodec ID : 40\nDuration : 1h 47mn\nBit rate mode : Variable\nBit rate : 128 Kbps\nChannel(s) : 2 channels\nChannel positions : L R\nSampling rate : 48.0 KHz\nResolution : 16 bits\nStream size : 98.5 MiB (10%)\n................................................\nPlot:\nA group of Iraq War veterans looks to clear their name with the U.S. military, who suspect the four men of committing a crime for which they were framed","torrent":{"xt":"urn:btih:196afaf9ef964d6372c7e9da8d25723205badfa9","amp;dn":"The.A.Team.2010.TS.V2.MP4.AAC.FEEEL-FREE","amp;tr":["udp%3A%2F%2Ftracker.openbittorrent.com%3A80","udp%3A%2F%2Fopen.demonii.com%3A1337","udp%3A%2F%2Ftracker.coppersurfer.tk%3A6969","udp%3A%2F%2Fexodus.desync.com%3A6969"],"infoHash":"196afaf9ef964d6372c7e9da8d25723205badfa9","infoHashBuffer":{"type":"Buffer","data":[25,106,250,249,239,150,77,99,114,199,233,218,141,37,114,50,5,186,223,169]},"announce":[],"urlList":[]}}